<svg width="284" height="228" xmlns="http://www.w3.org/2000/svg" xmlns:xlink="http://www.w3.org/1999/xlink" xml:space="preserve" overflow="hidden"><defs><clipPath id="clip0"><rect x="49" y="421" width="284" height="228"/></clipPath><linearGradient x1="326.245" y1="489.639" x2="526.918" y2="651.359" gradientUnits="userSpaceOnUse" spreadMethod="pad" id="stroke1"><stop offset="0" stop-color="#EE2737"/><stop offset="0.13" stop-color="#EF2B34"/><stop offset="0.26" stop-color="#F23829"/><stop offset="0.39" stop-color="#F84C18"/><stop offset="0.53" stop-color="#FF6900"/><stop offset="1" stop-color="#FFA400"/></linearGradient><linearGradient x1="361.388" y1="509.974" x2="443.818" y2="576.41" gradientUnits="userSpaceOnUse" spreadMethod="pad" id="stroke2"><stop offset="0" stop-color="#EE2737"/><stop offset="0.13" stop-color="#EF2B34"/><stop offset="0.26" stop-color="#F23829"/><stop offset="0.39" stop-color="#F84C18"/><stop offset="0.53" stop-color="#FF6900"/><stop offset="1" stop-color="#FFA400"/></linearGradient><linearGradient x1="461.599" y1="527.476" x2="513.073" y2="568.956" gradientUnits="userSpaceOnUse" spreadMethod="pad" id="stroke3"><stop offset="0" stop-color="#EE2737"/><stop offset="0.13" stop-color="#EF2B34"/><stop offset="0.26" stop-color="#F23829"/><stop offset="0.39" stop-color="#F84C18"/><stop offset="0.53" stop-color="#FF6900"/><stop offset="1" stop-color="#FFA400"/></linearGradient><linearGradient x1="277.814" y1="485.577" x2="500.386" y2="664.953" gradientUnits="userSpaceOnUse" spreadMethod="pad" id="stroke4"><stop offset="0" stop-color="#EE2737"/><stop offset="0.13" stop-color="#EF2B34"/><stop offset="0.26" stop-color="#F23829"/><stop offset="0.39" stop-color="#F84C18"/><stop offset="0.53" stop-color="#FF6900"/><stop offset="1" stop-color="#FFA400"/></linearGradient></defs><g clip-path="url(#clip0)" transform="translate(-49 -421)"><path d="M403.357 635.238C352.097 635.238 310.543 593.684 310.543 542.424 310.543 491.164 352.097 449.61 403.357 449.61L403.357 474.733C365.949 474.725 335.617 505.043 335.608 542.451 335.6 579.86 365.919 610.191 403.328 610.199 417.8 610.202 431.891 605.571 443.539 596.982L443.972 596.647C481.6 568.454 531.309 562.2 574.749 580.192L565.118 603.347C530.031 588.833 489.9 593.797 459.408 616.424L458.892 616.829C442.876 628.845 423.378 635.308 403.357 635.238Z" stroke="url(#stroke1)" stroke-width="0.697849" stroke-miterlimit="10" fill="none" transform="matrix(1 0 0 1.00532 -242.304 -0.31458)"/><path d="M403.357 595.098C374.266 595.071 350.704 571.467 350.732 542.375 350.759 513.285 374.363 489.724 403.453 489.751 410.264 489.758 417.01 491.084 423.315 493.659L413.797 516.869C399.688 511.091 383.564 517.845 377.786 531.954 372.008 546.064 378.763 562.186 392.872 567.964 401.862 571.646 412.125 570.331 419.896 564.504 419.896 564.504 423.092 562.118 424.92 560.861L439.24 581.448C437.677 582.551 434.942 584.574 434.914 584.602 425.819 591.445 414.739 595.131 403.357 595.098Z" stroke="url(#stroke2)" stroke-width="0.697849" stroke-miterlimit="10" fill="none" transform="matrix(1 0 0 1.00532 -242.304 -0.31458)"/><path d="M456.519 571.078 445.005 548.747C449.161 546.585 453.429 544.642 457.789 542.927 478.672 534.296 501.056 529.88 523.652 529.933L523.652 555.055C504.239 555.005 485.009 558.8 467.07 566.221 466.805 566.291 462.688 567.896 456.519 571.078Z" stroke="url(#stroke3)" stroke-width="0.697849" stroke-miterlimit="10" fill="none" transform="matrix(1 0 0 1.00532 -242.304 -0.31458)"/><path d="M403.357 675.365C329.928 675.401 270.373 615.905 270.337 542.476 270.311 488.649 302.742 440.117 352.484 419.547L362.072 442.716C307.003 465.468 280.806 528.557 303.559 583.625 326.312 638.695 389.4 664.893 444.469 642.139 452.411 638.857 459.933 634.638 466.875 629.572L468.006 628.72C484.045 616.61 503.61 610.085 523.708 610.144L523.708 635.266C509.443 635.223 495.534 639.725 484 648.121L483.079 648.804C460.114 666.118 432.117 675.445 403.357 675.365Z" stroke="url(#stroke4)" stroke-width="0.697849" stroke-miterlimit="10" fill="none" transform="matrix(1 0 0 1.00532 -242.304 -0.31458)"/></g></svg>