<svg width="285" height="227" xmlns="http://www.w3.org/2000/svg" xmlns:xlink="http://www.w3.org/1999/xlink" xml:space="preserve" overflow="hidden"><defs><clipPath id="clip0"><rect x="995" y="493" width="285" height="227"/></clipPath><linearGradient x1="326.541" y1="490.083" x2="527.396" y2="651.95" gradientUnits="userSpaceOnUse" spreadMethod="pad" id="stroke1"><stop offset="0" stop-color="#EE2737"/><stop offset="0.13" stop-color="#EF2B34"/><stop offset="0.26" stop-color="#F23829"/><stop offset="0.39" stop-color="#F84C18"/><stop offset="0.53" stop-color="#FF6900"/><stop offset="1" stop-color="#FFA400"/></linearGradient><linearGradient x1="361.716" y1="510.437" x2="444.221" y2="576.933" gradientUnits="userSpaceOnUse" spreadMethod="pad" id="stroke2"><stop offset="0" stop-color="#EE2737"/><stop offset="0.13" stop-color="#EF2B34"/><stop offset="0.26" stop-color="#F23829"/><stop offset="0.39" stop-color="#F84C18"/><stop offset="0.53" stop-color="#FF6900"/><stop offset="1" stop-color="#FFA400"/></linearGradient><linearGradient x1="462.018" y1="527.955" x2="513.538" y2="569.473" gradientUnits="userSpaceOnUse" spreadMethod="pad" id="stroke3"><stop offset="0" stop-color="#EE2737"/><stop offset="0.13" stop-color="#EF2B34"/><stop offset="0.26" stop-color="#F23829"/><stop offset="0.39" stop-color="#F84C18"/><stop offset="0.53" stop-color="#FF6900"/><stop offset="1" stop-color="#FFA400"/></linearGradient><linearGradient x1="278.066" y1="486.018" x2="500.84" y2="665.556" gradientUnits="userSpaceOnUse" spreadMethod="pad" id="stroke4"><stop offset="0" stop-color="#EE2737"/><stop offset="0.13" stop-color="#EF2B34"/><stop offset="0.26" stop-color="#F23829"/><stop offset="0.39" stop-color="#F84C18"/><stop offset="0.53" stop-color="#FF6900"/><stop offset="1" stop-color="#FFA400"/></linearGradient></defs><g clip-path="url(#clip0)" transform="translate(-995 -493)"><path d="M403.723 635.815C352.417 635.815 310.825 594.223 310.825 542.917 310.825 491.61 352.417 450.018 403.723 450.018L403.723 475.164C366.281 475.155 335.921 505.502 335.913 542.943 335.904 580.386 366.251 610.745 403.694 610.753 418.179 610.756 432.282 606.121 443.942 597.524L444.375 597.189C482.037 568.97 531.791 562.71 575.27 580.718L565.631 603.894C530.511 589.367 490.345 594.336 459.825 616.984L459.308 617.389C443.278 629.415 423.762 635.885 403.723 635.815Z" stroke="url(#stroke1)" stroke-width="0.698483" stroke-miterlimit="10" fill="none" transform="matrix(-1.00261 0 0 1 1572.33 73.5333)"/><path d="M403.723 595.638C374.606 595.611 351.022 571.986 351.05 542.868 351.077 513.751 374.702 490.169 403.819 490.195 410.637 490.202 417.388 491.529 423.7 494.107L414.172 517.338C400.05 511.555 383.913 518.315 378.129 532.437 372.346 546.56 379.107 562.696 393.229 568.48 402.227 572.165 412.499 570.849 420.277 565.017 420.277 565.017 423.476 562.628 425.306 561.37L439.639 581.976C438.074 583.079 435.336 585.105 435.308 585.133 426.206 591.982 415.115 595.672 403.723 595.638Z" stroke="url(#stroke2)" stroke-width="0.698483" stroke-miterlimit="10" fill="none" transform="matrix(-1.00261 0 0 1 1572.33 73.5333)"/><path d="M456.933 571.596 445.408 549.245C449.569 547.081 453.84 545.136 458.205 543.419 479.106 534.781 501.51 530.361 524.127 530.414L524.127 555.559C504.697 555.509 485.45 559.307 467.494 566.735 467.229 566.805 463.108 568.411 456.933 571.596Z" stroke="url(#stroke3)" stroke-width="0.698483" stroke-miterlimit="10" fill="none" transform="matrix(-1.00261 0 0 1 1572.33 73.5333)"/><path d="M403.723 675.977C330.227 676.014 270.619 616.464 270.582 542.968 270.556 489.093 303.017 440.516 352.804 419.928L362.401 443.117C307.282 465.891 281.061 529.036 303.834 584.155 326.608 639.275 389.753 665.496 444.872 642.721 452.822 639.437 460.35 635.214 467.299 630.143L468.43 629.291C484.484 617.169 504.067 610.639 524.183 610.697L524.183 635.843C509.905 635.799 495.984 640.306 484.44 648.709L483.518 649.393C460.532 666.723 432.509 676.058 403.723 675.977Z" stroke="url(#stroke4)" stroke-width="0.698483" stroke-miterlimit="10" fill="none" transform="matrix(-1.00261 0 0 1 1572.33 73.5333)"/></g></svg>