<?xml version="1.0" encoding="utf-8"?>
<!-- Generator: Adobe Illustrator 27.0.1, SVG Export Plug-In . SVG Version: 6.00 Build 0)  -->
<svg version="1.1" id="Camada_1" xmlns="http://www.w3.org/2000/svg" xmlns:xlink="http://www.w3.org/1999/xlink" x="0px" y="0px"
	 viewBox="0 0 823.4 183.3" style="enable-background:new 0 0 823.4 183.3;" xml:space="preserve">
<style type="text/css">
	.st0{fill:url(#SVGID_1_);}
	.st1{fill:url(#SVGID_00000150103022154566840860000002973504749526858136_);}
	.st2{fill:url(#SVGID_00000124120478761583448750000005120106907327470245_);}
	.st3{fill:url(#SVGID_00000043415155301486170050000012774375591353084592_);}
	.st4{fill:#FFFFFF;}
</style>
<g>
	<g>
		<linearGradient id="SVGID_1_" gradientUnits="userSpaceOnUse" x1="12.9505" y1="28.431" x2="182.1667" y2="164.7994">
			<stop  offset="0" style="stop-color:#EE2737"/>
			<stop  offset="0.1272" style="stop-color:#EF2B34"/>
			<stop  offset="0.2586" style="stop-color:#F23829"/>
			<stop  offset="0.3921" style="stop-color:#F84C18"/>
			<stop  offset="0.5261" style="stop-color:#FF6900"/>
			<stop  offset="0.9995" style="stop-color:#FFA400"/>
		</linearGradient>
		<path class="st0" d="M95.3,154.5c-36.7,0-66.5-29.8-66.5-66.5s29.8-66.5,66.5-66.5v18c-26.8,0-48.5,21.8-48.5,48.5
			s21.8,48.5,48.5,48.5c10.5,0,20.4-3.3,28.8-9.5l0.3-0.2c16.6-12.5,36.4-19.1,57.2-19.1c12.7,0,24.9,2.4,36.5,7.3l-6.9,16.6
			c-9.4-3.9-19.4-5.9-29.6-5.9c-16.8,0-32.7,5.3-46.1,15.2l-0.4,0.3C123.5,150,109.7,154.5,95.3,154.5z"/>
	</g>
	<g>
		
			<linearGradient id="SVGID_00000072980841608821873010000014304787247867846818_" gradientUnits="userSpaceOnUse" x1="15.7463" y1="24.9617" x2="184.9626" y2="161.3301">
			<stop  offset="0" style="stop-color:#EE2737"/>
			<stop  offset="0.1272" style="stop-color:#EF2B34"/>
			<stop  offset="0.2586" style="stop-color:#F23829"/>
			<stop  offset="0.3921" style="stop-color:#F84C18"/>
			<stop  offset="0.5261" style="stop-color:#FF6900"/>
			<stop  offset="0.9995" style="stop-color:#FFA400"/>
		</linearGradient>
		<path style="fill:url(#SVGID_00000072980841608821873010000014304787247867846818_);" d="M95.3,125.8c-20.8,0-37.7-16.9-37.7-37.7
			s16.9-37.7,37.7-37.7c4.9,0,9.8,0.9,14.3,2.8l-6.8,16.6c-2.4-1-4.9-1.5-7.5-1.5c-10.9,0-19.8,8.9-19.8,19.8s8.9,19.8,19.8,19.8
			c4.3,0,8.4-1.4,11.9-3.9c0,0,2.3-1.7,3.6-2.6L121,116c-1.1,0.8-3.1,2.2-3.1,2.3C111.3,123.2,103.5,125.8,95.3,125.8z"/>
	</g>
	<g>
		
			<linearGradient id="SVGID_00000171705005839453497110000011488633192569431994_" gradientUnits="userSpaceOnUse" x1="37.9004" y1="-2.5287" x2="207.1166" y2="133.8397">
			<stop  offset="0" style="stop-color:#EE2737"/>
			<stop  offset="0.1272" style="stop-color:#EF2B34"/>
			<stop  offset="0.2586" style="stop-color:#F23829"/>
			<stop  offset="0.3921" style="stop-color:#F84C18"/>
			<stop  offset="0.5261" style="stop-color:#FF6900"/>
			<stop  offset="0.9995" style="stop-color:#FFA400"/>
		</linearGradient>
		<path style="fill:url(#SVGID_00000171705005839453497110000011488633192569431994_);" d="M133.4,108.6l-8.2-16
			c5.4-2.8,9-4.2,9.2-4.2c14.8-6.1,30.8-9.3,47.2-9.3v18c-14,0-27.7,2.7-40.5,8C140.7,105.1,137.8,106.3,133.4,108.6z"/>
	</g>
	<g>
		
			<linearGradient id="SVGID_00000079479009557862686770000008299617019596874116_" gradientUnits="userSpaceOnUse" x1="0.6968" y1="43.6363" x2="169.9131" y2="180.0047">
			<stop  offset="0" style="stop-color:#EE2737"/>
			<stop  offset="0.1272" style="stop-color:#EF2B34"/>
			<stop  offset="0.2586" style="stop-color:#F23829"/>
			<stop  offset="0.3921" style="stop-color:#F84C18"/>
			<stop  offset="0.5261" style="stop-color:#FF6900"/>
			<stop  offset="0.9995" style="stop-color:#FFA400"/>
		</linearGradient>
		<path style="fill:url(#SVGID_00000079479009557862686770000008299617019596874116_);" d="M95.3,183.3C42.7,183.3,0,140.6,0,88
			C0,49.4,23.1,14.8,58.8,0l6.9,16.6C36.7,28.6,18,56.7,18,88c0,42.6,34.7,77.3,77.3,77.3c16.5,0,32.3-5.1,45.5-14.8l0.8-0.6
			c11.6-8.7,25.4-13.3,39.9-13.3v18c-10.3,0-20.1,3.2-28.5,9.2l-0.7,0.5C135.8,176.7,116.1,183.3,95.3,183.3z"/>
	</g>
</g>
<g>
	<rect x="282.2" y="30.9" class="st4" width="19.3" height="85.9"/>
	<path class="st4" d="M375.7,72.6c1.6-1.1,3-2.3,4.2-3.7c2.7-3.2,4.1-7.5,4.1-12.8v-1.8c0-7.7-2.6-13.6-7.9-17.8
		c-5.3-4.2-12.9-6.2-22.8-6.2h-13.4h-2.4H321v87.3h16.5h2.4h16.8c6.7,0,12.4-1,16.9-2.9c4.5-2,8-4.8,10.4-8.4
		c2.4-3.6,3.5-8,3.5-13.1v-1.6c0-5.5-1.3-9.8-4-13.1C381.4,75.9,378.8,74,375.7,72.6z M354.4,45.4c3.6,0,6.3,0.9,7.9,2.8
		c1.7,1.8,2.5,4.4,2.5,7.7c0,3.1-0.8,5.6-2.5,7.5c-1.7,1.9-4.3,2.8-7.9,2.8h-14.6V45.4H354.4z M365.7,99.5c-1.8,1.9-4.5,2.8-8.1,2.8
		h-17.8V80.8h17.8c3.6,0,6.3,0.9,8.1,2.8c1.8,1.8,2.7,4.5,2.7,7.9C368.4,95,367.5,97.6,365.7,99.5z"/>
	<path class="st4" d="M498.1,46c3.5,0,6.1-0.9,7.8-2.8c1.7-1.8,2.5-4.2,2.5-7c0-2.9-0.8-5.3-2.5-7.1c-1.7-1.8-4.3-2.8-7.8-2.8
		c-3.5,0-6.1,0.9-7.8,2.8c-1.7,1.8-2.5,4.2-2.5,7.1c0,2.8,0.8,5.2,2.5,7C492,45.1,494.6,46,498.1,46z"/>
	<polygon class="st4" points="482.1,52.4 482.1,66.4 490.7,66.4 490.7,116.8 509.7,116.8 509.7,66.4 509.7,52.4 490.7,52.4 	"/>
	<path class="st4" d="M573.8,61.2c-2-3.1-4.4-5.6-7.4-7.4c-3.8-2.2-8.2-3.4-13.4-3.4c-4.5,0-8.7,0.8-12.4,2.5
		c-3.7,1.7-6.8,4-9.5,7.1c-2.6,3-4.6,6.5-6.1,10.5c-1.4,4-2.1,8.3-2.1,12.9v2.7c0,4.6,0.7,8.9,2.2,12.9c1.5,4,3.6,7.5,6.3,10.4
		c2.7,2.9,5.9,5.2,9.7,6.9c3.8,1.6,7.9,2.5,12.3,2.5c5.2,0,9.7-1.1,13.6-3.4c3.9-2.2,7-5.5,9.4-9.8c0.5-0.9,0.9-1.7,1.2-2.7v13.7
		h14.9V30.9h-18.9V61.2z M574.2,86.5c0,3.5-0.7,6.5-2.2,9.1c-1.4,2.5-3.4,4.4-5.8,5.7c-2.4,1.3-5.1,1.9-7.9,1.9
		c-3.1,0-6-0.7-8.5-2.2c-2.5-1.5-4.5-3.6-5.9-6.4c-1.4-2.7-2.1-6-2.1-9.8c0-3.7,0.7-6.9,2.1-9.7c1.4-2.8,3.4-5,5.8-6.5
		c2.5-1.6,5.3-2.4,8.4-2.4c2.8,0,5.4,0.6,7.9,1.9c2.4,1.3,4.4,3,5.9,5.4c1.5,2.3,2.2,5.2,2.2,8.6V86.5z"/>
	<path class="st4" d="M649.8,54.1c-4.5-1.9-10.1-2.8-16.6-2.8c-2.3,0-4.7,0-7.3,0.1c-2.6,0.1-5.1,0.2-7.5,0.4
		c-2.4,0.2-4.6,0.3-6.5,0.5v15.9c2.4-0.2,5.2-0.3,8.2-0.4c3-0.1,5.9-0.2,8.8-0.3c2.8-0.1,5.1-0.1,6.8-0.1c3.5,0,6,0.8,7.5,2.4
		c1.6,1.6,2.4,4.1,2.4,7.5v0.1h-11.6c-5.7,0-10.8,0.7-15.2,2.2c-4.4,1.5-7.8,3.7-10.2,6.7c-2.4,3-3.6,6.9-3.6,11.6
		c0,4.3,1,8,2.9,11.1c2,3.1,4.7,5.5,8.2,7.1c3.5,1.6,7.5,2.5,12.2,2.5c4.5,0,8.3-0.8,11.4-2.5c3.1-1.6,5.5-4,7.3-7.1
		c0.8-1.4,1.4-2.9,1.9-4.5v12.4h14.9V77.3c0-6-1.2-10.8-3.5-14.6C657.8,58.8,654.3,56,649.8,54.1z M639.5,104.3
		c-1.7,0.7-3.6,1.1-5.7,1.1c-3.3,0-5.8-0.8-7.6-2.4c-1.8-1.6-2.6-3.7-2.6-6.3c0-2.7,0.9-4.9,2.6-6.5c1.8-1.6,4.3-2.4,7.6-2.4h11.8
		v5.2c-0.2,3.2-0.8,5.7-1.9,7.5C642.6,102.3,641.2,103.5,639.5,104.3z"/>
	<path class="st4" d="M726.3,61.2c-2-3.1-4.4-5.6-7.4-7.4c-3.8-2.2-8.2-3.4-13.4-3.4c-4.5,0-8.7,0.8-12.3,2.5
		c-3.7,1.7-6.8,4-9.5,7.1c-2.6,3-4.6,6.5-6.1,10.5c-1.4,4-2.1,8.3-2.1,12.9v2.7c0,4.6,0.7,8.9,2.2,12.9c1.5,4,3.6,7.5,6.3,10.4
		c2.7,2.9,5.9,5.2,9.7,6.9c3.8,1.6,7.9,2.5,12.4,2.5c5.2,0,9.7-1.1,13.6-3.4c3.9-2.2,7-5.5,9.4-9.8c0.5-0.9,0.9-1.7,1.2-2.7v13.7
		h14.9V30.9h-18.9V61.2z M726.8,86.5c0,3.5-0.7,6.5-2.2,9.1c-1.5,2.5-3.4,4.4-5.8,5.7c-2.4,1.3-5.1,1.9-7.9,1.9
		c-3.1,0-6-0.7-8.5-2.2c-2.5-1.5-4.5-3.6-5.9-6.4c-1.4-2.7-2.1-6-2.1-9.8c0-3.7,0.7-6.9,2.1-9.7c1.4-2.8,3.4-5,5.8-6.5
		c2.5-1.6,5.3-2.4,8.4-2.4c2.8,0,5.5,0.6,7.9,1.9c2.4,1.3,4.4,3,5.9,5.4c1.5,2.3,2.2,5.2,2.2,8.6V86.5z"/>
	<path class="st4" d="M823.3,83.4c-0.7-11.1-5.4-33.2-32.1-33.2c-19.6,0-32.9,15-32.9,33.3v2.4c0,16.4,11.9,33.4,33.6,33.4
		c13.2,0,20.8-5.6,25.2-11.5l-12.3-10.8c-0.8,1.9-2.3,3.6-4.4,4.9c-2.2,1.3-5,2-8.5,2c-3.8,0-6.8-0.8-9.2-2.4
		c-4.8-3.2-6-8.4-6.5-11.9h47.1C823.3,89.5,823.5,87.1,823.3,83.4z M776.3,78.8c0.3-1.8,2.4-13.3,14.8-13.3
		c11.9,0,13.6,9.7,14.1,13.3H776.3z"/>
	<path class="st4" d="M456.4,96.7c-4.1,2.9-9.2,4.4-15.1,4.4c-3.9,0-7.4-0.6-10.5-1.9c-3.1-1.3-5.6-3.2-7.7-5.6
		c-2.1-2.5-3.6-5.4-4.7-8.7c-1.1-3.3-1.6-7-1.6-11c0-4.1,0.5-7.8,1.6-11.1c1.1-3.3,2.6-6.2,4.6-8.6c2-2.4,4.5-4.3,7.5-5.6
		c3-1.3,6.4-1.9,10.2-1.9c3.8,0,7.3,0.6,10.4,1.9c3.1,1.3,5.6,3.2,7.6,5.6c0.2,0.2,0.4,0.5,0.5,0.8l13.5-13.5
		c-3.1-3.5-6.9-6.3-11.4-8.5c-6-2.9-12.8-4.4-20.6-4.4c-7.5,0-13.9,1.3-19.4,3.8c-5.5,2.6-10,5.9-13.6,10.2c-3.6,4.2-6.3,9-8,14.2
		c-1.7,5.2-2.6,10.5-2.6,15.8v2.6c0,4.9,0.8,9.9,2.5,15.1c1.7,5.2,4.3,10,7.9,14.3c3.6,4.4,8.1,8,13.7,10.7c5.6,2.7,12.2,4.1,20,4.1
		c8.2,0,15.4-1.6,21.4-4.7c4.1-2.1,7.5-4.8,10.4-7.8l-13.2-13.2C458.9,94.6,457.8,95.8,456.4,96.7z"/>
</g>
</svg>
